<svg width="1000" height="1000" xmlns="http://www.w3.org/2000/svg" clip-rule="evenodd" version="1.1" xml:space="preserve">

 <g>
  <title>Layer 1</title>
  <g id="Слой_x0020_2">
   <metadata id="CorelCorpID_0Corel-Layer"/>
   <g id="_2559684766432">
    <path id="svg_1" fill="none" stroke-miterlimit="22.9256" stroke-width="50" stroke="black" d="m695.686,138.2836c129.2787,70.097 216.6228,207.4298 215.4696,364.7499c-1.6645,227.1018 -187.1162,409.8545 -414.218,408.1899c-227.1015,-1.6645 -409.8544,-187.116 -408.1899,-414.218c1.6648,-227.1017 187.1163,-409.8544 414.2181,-408.1899c69.7818,0.5115 135.3762,18.3755 192.7202,49.4681" class="fil0 str0"/>
    <line id="svg_2" fill="none" stroke-miterlimit="22.9256" stroke-width="50" stroke="black" y2="310.8687" x2="499.9513" y1="845.3085" x1="499.9513" class="fil0 str0"/>
    <line id="svg_3" fill="none" stroke-miterlimit="22.9256" stroke-width="50" stroke="black" y2="310.8678" x2="613.6975" y1="310.8678" x1="385.342" class="fil0 str0"/>
    <line id="svg_4" fill="none" stroke-miterlimit="22.9256" stroke-width="50" stroke="black" y2="251.023" x2="613.6973" y1="251.023" x1="385.3419" class="fil0 str0"/>
    <line id="svg_5" fill="none" stroke-miterlimit="22.9256" stroke-width="50" stroke="black" y2="191.8478" x2="613.6972" y1="191.8478" x1="385.3419" class="fil0 str0"/>
    <line id="svg_6" fill="none" stroke-miterlimit="22.9256" stroke-width="50" stroke="black" y2="702.7228" x2="428.8669" y1="474.3673" x1="428.8669" class="fil0 str0"/>
    <line id="svg_7" fill="none" stroke-miterlimit="22.9256" stroke-width="50" stroke="black" y2="702.7228" x2="572.2283" y1="474.3673" x1="572.2283" class="fil0 str0"/>
    <path id="svg_8" fill="black" stroke-miterlimit="22.9256" stroke-width="50" stroke="black" d="m518.7435,372.8468c12.4119,6.73 20.7977,19.9152 20.687,35.0193c-0.1598,21.8037 -17.9648,39.3496 -39.7686,39.1898c-21.8037,-0.1598 -39.3496,-17.9648 -39.1898,-39.7686c0.1598,-21.8038 17.9648,-39.3497 39.7686,-39.1898c6.6996,0.0491 12.9973,1.7642 18.5028,4.7493z" class="fil1 str0"/>
   </g>
  </g>
 </g>
</svg>