<?xml version="1.0" encoding="UTF-8"?>
<!DOCTYPE svg PUBLIC "-//W3C//DTD SVG 1.0//EN" "http://www.w3.org/TR/2001/REC-SVG-20010904/DTD/svg10.dtd">
<!-- Creator: CorelDRAW 2019 (64-Bit) -->
<svg xmlns="http://www.w3.org/2000/svg" xml:space="preserve" width="512px" height="512px" version="1.0" shape-rendering="geometricPrecision" text-rendering="geometricPrecision" image-rendering="optimizeQuality" fill-rule="evenodd" clip-rule="evenodd"
viewBox="0 0 512 512"
 xmlns:xlink="http://www.w3.org/1999/xlink"
 xmlns:xodm="http://www.corel.com/coreldraw/odm/2003">
 <g id="Слой_x0020_1">
  <metadata id="CorelCorpID_0Corel-Layer"/>
  <path fill="blue" d="M65.64 254.17l109.12 -58.73c308.23,0.23 -18.59,-0.01 289.63,0.22 0,23.87 -0.74,-0.05 -1.3,133.99 -299.31,-2.69 18.99,0.17 -280.32,-2.52l-117.13 -72.96zm-57.99 0.39c22.39,13.96 20.04,12.16 159.2,99.75 327.54,3.15 217.89,3.06 327.54,3.15l-0.64 -188.97c-327.33,-0.78 -4.01,0.73 -331.34,-0.05 -154.76,86.12 -19.4,12.71 -154.76,86.12 -0.44,24.19 0.44,-24.2 0,0z"/>
 </g>
</svg>
