<svg width="1000" height="1000" xmlns="http://www.w3.org/2000/svg" clip-rule="evenodd" version="1.1" xml:space="preserve">

 <g>
  <title>Layer 1</title>
  <g id="Слой_x0020_2">
   <metadata id="CorelCorpID_0Corel-Layer"/>
   <g id="_2084659289216">
    <path id="svg_1" fill="none" stroke-miterlimit="22.9256" stroke-width="50" stroke="black" d="m700.0652,236.6231c-128.9295,-97.8619 -314.1562,-87.4066 -432.5372,30.9743c-129.1821,129.1822 -129.8455,337.9647 -1.4816,466.3286c128.3638,128.3639 337.1463,127.7005 466.3285,-1.4817c129.1822,-129.1822 129.8456,-337.9647 1.4818,-466.3286c-10.7328,-10.7328 -22.0278,-20.5635 -33.7915,-29.4926" class="fil0 str0"/>
    <g id="svg_2">
     <line fill-rule="nonzero" fill="none" stroke-miterlimit="22.9256" stroke-width="40" stroke="black" y2="520.2923" x2="425.0407" y1="651.1416" x1="553.9748" class="fil1 str1" id="svg_33"/>
     <line fill-rule="nonzero" fill="none" stroke-miterlimit="22.9256" stroke-width="40" stroke="black" y2="426.6555" x2="518.6774" y1="557.5048" x1="647.6119" class="fil1 str1" id="svg_34"/>
     <g id="svg_3">
      <path fill-rule="nonzero" fill="black" d="m393.7927,367.1338l292.639,294.2651l-28.3626,28.2058l-292.639,-294.2651l28.3626,-28.2058zm-66.1401,-38.1447l82.3982,27.708l-55.1292,54.8246l-27.269,-82.5326z" class="fil2" id="svg_34_7"/>
     </g>
    </g>
   </g>
  </g>
 </g>
</svg>