<?xml version="1.0" encoding="UTF-8"?>
<!DOCTYPE svg PUBLIC "-//W3C//DTD SVG 1.0//EN" "http://www.w3.org/TR/2001/REC-SVG-20010904/DTD/svg10.dtd">
<!-- Creator: CorelDRAW 2019 (64-Bit) -->
<svg xmlns="http://www.w3.org/2000/svg" xml:space="preserve" width="512px" height="512px" version="1.0" shape-rendering="geometricPrecision" text-rendering="geometricPrecision" image-rendering="optimizeQuality" fill-rule="evenodd" clip-rule="evenodd"
viewBox="0 0 512 512"
 xmlns:xlink="http://www.w3.org/1999/xlink"
 xmlns:xodm="http://www.corel.com/coreldraw/odm/2003">
 <g id="Слой_x0020_1">
  <metadata id="CorelCorpID_0Corel-Layer"/>
  <g id="_1940761829696">
   <path fill="blue" d="M121.13 60.44l118.7 35.63c201.06,204.42 0,0 201.06,204.42 -16.88,16.87 1.83,-0.87 -93.34,93.51 -209.75,-213.54 1.26,0.85 -195.19,-199.15l-31.23 -134.41zm-41.27 -40.73c5.95,25.71 5.57,22.77 42.03,183.11 229.38,233.83 151.91,156.24 229.38,233.83l133.17 -134.07c-232.97,-233.04 -2.83,-2.84 -232.97,-233.04 -170.33,-48.54 0,0 -171.61,-49.83 -17.43,16.8 17.42,-16.8 0,0z"/>
   <g>
    <path fill="blue" fill-rule="nonzero" d="M186.68 136.09l82.46 27.55 -55.03 54.94 -27.43 -82.49zm175.82 197.29l-132.21 -132.39 21.23 -21.2 132.21 132.39 -21.23 21.2z"/>
   </g>
   <polyline fill="none" stroke="blue" stroke-width="30" stroke-miterlimit="22.9256" points="298.84,324.46 335.11,360.37 410.02,285.46 373.39,248.82 "/>
  </g>
 </g>
</svg>
