<svg width="1000" height="1000" xmlns="http://www.w3.org/2000/svg" clip-rule="evenodd" version="1.1" xml:space="preserve">

 <g>
  <title>Layer 1</title>
  <g id="Слой_x0020_2">
   <metadata id="CorelCorpID_0Corel-Layer"/>
   <g id="_1960687148320">
    <line id="svg_1" fill="none" stroke-miterlimit="22.9256" stroke-width="40.2" stroke="black" y2="608.8979" x2="287.3198" y1="608.8979" x1="726.6991" class="fil0 str0"/>
    <line id="svg_2" fill="none" stroke-miterlimit="22.9256" stroke-width="40.2" stroke="black" y2="67.1895" x2="501.2203" y1="601.326" x1="500.3532" class="fil0 str0"/>
    <path id="svg_3" fill="none" stroke-miterlimit="22.9256" stroke-width="40.2" stroke="black" d="m430.0745,791.4525c-0.1704,-1.9889 -0.2575,-4.0015 -0.2575,-6.0343c0,-10.7791 2.4463,-20.9912 6.818,-30.1195m127.1806,-1.5898c4.8637,9.526 7.6043,20.3 7.6043,31.7093c0,18.5547 -7.2485,35.4295 -19.0889,47.9881c-12.9205,13.704 -31.3086,22.2687 -51.7125,22.2687c-37.0541,0 -67.4598,-28.2456 -70.544,-64.2225" class="fil0 str0"/>
    <path id="svg_4" fill="none" stroke-miterlimit="22.9256" stroke-width="40.2" stroke="black" d="m436.635,755.2987c11.3652,-23.7312 35.7436,-40.1373 63.9835,-40.1373c27.6049,0 51.5199,15.6765 63.1971,38.5475" class="fil0 str0"/>
    <line id="svg_5" fill="none" stroke-miterlimit="22.9256" stroke-width="40.2" stroke="black" y2="702.6561" x2="285.2141" y1="702.6561" x1="724.5934" class="fil0 str0"/>
   </g>
  </g>
 </g>
</svg>