<svg width="1000" height="1000" xmlns="http://www.w3.org/2000/svg" clip-rule="evenodd" version="1.1" xml:space="preserve">

 <g>
  <title>Layer 1</title>
  <g id="Слой_x0020_2">
   <metadata id="CorelCorpID_0Corel-Layer"/>
   <g id="_2115755988624">
    <polyline id="svg_1" fill-rule="nonzero" fill="none" stroke-miterlimit="22.9256" stroke-width="40" stroke="black" points="442.3404,278.3736 63.7216,656.9914 342.9802,936.2508 936.1826,343.0499 656.924,63.7906 442.3404,278.3736 " class="fil0 str0"/>
    <g id="svg_2">
     <path id="svg_3" fill-rule="nonzero" fill="none" stroke-miterlimit="22.9256" stroke-width="40" stroke="black" d="m740.4544,287.7389c-1.5548,-2.0418 -3.2648,-4.0032 -5.1299,-5.8683c-22.4284,-22.4285 -58.7927,-22.4281 -81.2217,0.0008c-22.429,22.429 -22.4296,58.7933 -0.0012,81.2218c22.4285,22.4285 58.7928,22.4281 81.2218,-0.0008c20.5639,-20.5639 22.2744,-52.8418 5.131,-75.3535" class="fil0 str0"/>
     <line fill="none" stroke-miterlimit="22.9256" stroke-width="40" stroke="black" y2="322.4817" x2="752.1462" y1="322.4809" x1="822.4147" class="fil1 str0" id="svg_4"/>
     <line fill="none" stroke-miterlimit="22.9256" stroke-width="40" stroke="black" y2="379.9146" x2="694.7129" y1="450.1835" x1="694.7121" class="fil1 str0" id="svg_5"/>
     <line fill="none" stroke-miterlimit="22.9256" stroke-width="40" stroke="black" y2="281.8718" x2="654.1034" y1="241.2616" x1="613.4931" class="fil1 str0" id="svg_6"/>
    </g>
    <g id="svg_7">
     <path id="svg_8" fill-rule="nonzero" fill="none" stroke-miterlimit="22.9256" stroke-width="40" stroke="black" d="m553.0506,472.3705c-1.2185,-1.4916 -2.5233,-2.9363 -3.9144,-4.3274c-22.4284,-22.4285 -58.7928,-22.4281 -81.2218,0.0009c-22.429,22.4289 -22.4295,58.7932 -0.0011,81.2217c22.4285,22.4286 58.7928,22.4281 81.2218,-0.0008c21.0379,-21.0378 22.3432,-54.336 3.9155,-76.8944" class="fil0 str0"/>
     <line fill="none" stroke-miterlimit="22.9256" stroke-width="40" stroke="black" y2="508.6538" x2="565.9578" y1="508.653" x1="636.2263" class="fil1 str0" id="svg_9"/>
     <line fill="none" stroke-miterlimit="22.9256" stroke-width="40" stroke="black" y2="566.0871" x2="508.5244" y1="636.3556" x1="508.5237" class="fil1 str0" id="svg_10"/>
     <line fill="none" stroke-miterlimit="22.9256" stroke-width="40" stroke="black" y2="468.0439" x2="467.915" y1="427.4336" x1="427.3043" class="fil1 str0" id="svg_11"/>
    </g>
    <g id="svg_12">
     <path id="svg_13" fill="none" stroke-miterlimit="22.9256" stroke-width="40" stroke="black" d="m289.3366,741.8216c-2.6181,-1.8548 -5.1158,-3.9548 -7.461,-6.3001c-22.4285,-22.4285 -22.4279,-58.7929 0.0011,-81.2218c22.429,-22.4289 58.7933,-22.4294 81.2218,-0.0009c0.3694,0.3694 0.7328,0.7426 1.09,1.1195" class="fil1 str0"/>
     <path id="svg_17" fill="none" stroke-miterlimit="22.9256" stroke-width="40" stroke="black" d="m364.1885,655.4183c1.0527,1.1105 2.0526,2.2527 2.9996,3.4235" class="fil1 str0"/>
     <path id="svg_18" fill="none" stroke-miterlimit="22.9256" stroke-width="40" stroke="black" d="m289.3366,741.8216c22.42,15.8831 53.6771,13.7827 73.7608,-6.301c20.971,-20.9709 22.3347,-54.1243 4.0907,-76.6788" class="fil1 str0"/>
     <line fill="none" stroke-miterlimit="22.9256" stroke-width="40" stroke="black" y2="694.9098" x2="379.9191" y1="694.909" x1="450.1879" class="fil1 str0" id="svg_14"/>
     <line fill="none" stroke-miterlimit="22.9256" stroke-width="40" stroke="black" y2="752.3432" x2="322.4861" y1="822.6117" x1="322.4853" class="fil1 str0" id="svg_15"/>
     <line fill="none" stroke-miterlimit="22.9256" stroke-width="40" stroke="black" y2="654.3" x2="281.8766" y1="613.6897" x1="241.266" class="fil1 str0" id="svg_16"/>
    </g>
   </g>
  </g>
 </g>
</svg>