<svg width="1000" height="1000" xmlns="http://www.w3.org/2000/svg" clip-rule="evenodd" version="1.1" xml:space="preserve">

 <g>
  <title>Layer 1</title>
  <g id="Слой_x0020_2">
   <metadata id="CorelCorpID_0Corel-Layer"/>
   <g id="_2115742856784">
    <polyline id="svg_1" fill-rule="nonzero" fill="none" stroke-miterlimit="22.9256" stroke-width="40" stroke="black" points="697.4179,616.0111 697.4186,80.564 302.4867,80.5634 302.4857,919.4773 697.4175,919.4778 697.4179,616.0111 " class="fil0 str0"/>
    <g id="svg_2">
     <path id="svg_3" fill-rule="nonzero" fill="none" stroke-miterlimit="22.9256" stroke-width="40" stroke="black" d="m479.9972,820.1873c2.5432,0.3444 5.1392,0.5222 7.7769,0.5222c31.7186,0 57.4318,-25.7137 57.4318,-57.433c0,-31.7194 -25.713,-57.4333 -57.4316,-57.4334c-31.7187,0 -57.4318,25.7138 -57.4319,57.4331c0,29.0817 21.6144,53.1152 49.6548,56.9111" class="fil0 str0"/>
     <line fill="none" stroke-miterlimit="22.9256" stroke-width="40" stroke="black" y2="803.8878" x2="447.1629" y1="853.5757" x1="397.4762" class="fil1 str0" id="svg_4"/>
     <line fill="none" stroke-miterlimit="22.9256" stroke-width="40" stroke="black" y2="722.6651" x2="447.1632" y1="672.9769" x1="397.4762" class="fil1 str0" id="svg_5"/>
     <line fill="none" stroke-miterlimit="22.9256" stroke-width="40" stroke="black" y2="763.2766" x2="545.2052" y1="763.2766" x1="602.6368" class="fil1 str0" id="svg_6"/>
    </g>
    <g id="svg_7">
     <path id="svg_8" fill-rule="nonzero" fill="none" stroke-miterlimit="22.9256" stroke-width="40" stroke="black" d="m481.9574,557.1186c1.9164,0.1931 3.8606,0.292 5.8279,0.292c31.7186,0.0001 57.4318,-25.7137 57.4318,-57.4331c0.0001,-31.7193 -25.713,-57.4331 -57.4316,-57.4332c-31.7188,-0.0001 -57.4319,25.7137 -57.4319,57.4331c-0.0001,29.752 22.6223,54.2203 51.6038,57.1412" class="fil0 str0"/>
     <line fill="none" stroke-miterlimit="22.9256" stroke-width="40" stroke="black" y2="540.5892" x2="447.1745" y1="590.2771" x1="397.4877" class="fil1 str0" id="svg_9"/>
     <line fill="none" stroke-miterlimit="22.9256" stroke-width="40" stroke="black" y2="459.3662" x2="447.1745" y1="409.6783" x1="397.4877" class="fil1 str0" id="svg_10"/>
     <line fill="none" stroke-miterlimit="22.9256" stroke-width="40" stroke="black" y2="499.9779" x2="545.2167" y1="499.9777" x1="602.6486" class="fil1 str0" id="svg_11"/>
    </g>
    <g id="svg_12">
     <path id="svg_13" fill="none" stroke-miterlimit="22.9256" stroke-width="40" stroke="black" d="m477.9007,180.1139c3.1628,-0.5397 6.4139,-0.8209 9.7306,-0.8209c31.7187,0 57.4317,25.714 57.4317,57.4333c-0.0001,31.7193 -25.7132,57.4331 -57.4319,57.4331c-0.5224,0 -1.0432,-0.0069 -1.5623,-0.0208" class="fil1 str0"/>
     <path id="svg_17" fill="none" stroke-miterlimit="22.9256" stroke-width="40" stroke="black" d="m486.0688,294.1386c-1.5296,-0.0409 -3.0443,-0.1415 -4.5418,-0.2998" class="fil1 str0"/>
     <path id="svg_18" fill="none" stroke-miterlimit="22.9256" stroke-width="40" stroke="black" d="m477.9007,180.1139c-27.0844,4.6223 -47.7013,28.2096 -47.7013,56.6123c-0.0001,29.6574 22.4787,54.0646 51.3276,57.1126" class="fil1 str0"/>
     <line fill="none" stroke-miterlimit="22.9256" stroke-width="40" stroke="black" y2="277.337" x2="447.0208" y1="327.0252" x1="397.3338" class="fil1 str0" id="svg_14"/>
     <line fill="none" stroke-miterlimit="22.9256" stroke-width="40" stroke="black" y2="196.1142" x2="447.0205" y1="146.4264" x1="397.3338" class="fil1 str0" id="svg_15"/>
     <line fill="none" stroke-miterlimit="22.9256" stroke-width="40" stroke="black" y2="236.726" x2="545.0628" y1="236.7258" x1="602.4946" class="fil1 str0" id="svg_16"/>
    </g>
   </g>
  </g>
 </g>
</svg>